<svg width="81" height="81" viewBox="0 0 81 81" fill="none" xmlns="http://www.w3.org/2000/svg">
<rect width="81" height="81" rx="20" fill="url(#paint0_linear_253_9)"/>
<path d="M38.43 19.11C42.722 19.11 46.4727 19.98 49.682 21.72C52.93 23.4213 55.424 25.8187 57.164 28.912C58.904 32.0053 59.774 35.5433 59.774 39.526C59.774 43.47 58.8847 46.9887 57.106 50.082C55.366 53.1753 52.872 55.6113 49.624 57.39C46.4147 59.13 42.6833 60 38.43 60H22.248V19.11H38.43ZM37.56 49.966C40.8853 49.966 43.4953 49.0573 45.39 47.24C47.2847 45.4227 48.232 42.8513 48.232 39.526C48.232 36.162 47.2847 33.5713 45.39 31.754C43.4953 29.898 40.8853 28.97 37.56 28.97H33.616V49.966H37.56Z" fill="white"/>
<defs>
<linearGradient id="paint0_linear_253_9" x1="40.5" y1="0" x2="40.5" y2="81" gradientUnits="userSpaceOnUse">
<stop offset="0.0259998" stop-color="#0F2433"/>
<stop offset="1" stop-color="#2506AD"/>
</linearGradient>
</defs>
</svg>
